<?xml version="1.0" standalone="no"?>
<!DOCTYPE svg PUBLIC "-//W3C//DTD SVG 20010904//EN"
 "http://www.w3.org/TR/2001/REC-SVG-20010904/DTD/svg10.dtd">
<svg version="1.0" xmlns="http://www.w3.org/2000/svg"
 width="512.000000pt" height="512.000000pt" viewBox="0 0 512.000000 512.000000"
 preserveAspectRatio="xMidYMid meet">
<metadata>
Created by potrace 1.11, written by Peter Selinger 2001-2013
</metadata>
<g transform="translate(0.000000,512.000000) scale(0.100000,-0.100000)"
fill="#000000" stroke="none">
<path d="M2520 3340 c-162 -34 -275 -94 -383 -204 -56 -57 -66 -72 -55 -82 7
-7 67 -48 133 -92 l120 -80 45 45 c94 93 217 130 364 109 160 -23 222 -161
146 -324 -34 -72 -101 -142 -546 -569 l-200 -193 0 -120 c1 -74 5 -120 11
-121 35 -3 1172 -4 1182 -1 9 3 12 46 12 153 l1 149 -33 1 c-17 0 -171 0 -341
0 l-309 -1 19 21 c11 12 52 54 93 93 219 212 352 346 383 386 83 106 125 212
131 335 13 241 -130 425 -383 490 -95 25 -283 27 -390 5z"/>
<path d="M4058 3355 c-2 -2 -21 -6 -43 -8 -245 -29 -431 -167 -490 -363 -9
-31 -13 -84 -12 -149 2 -92 5 -107 35 -168 68 -138 177 -208 432 -277 59 -16
118 -31 132 -34 63 -11 184 -50 225 -71 127 -68 128 -201 2 -265 -85 -44 -280
-49 -429 -11 -85 21 -226 82 -281 122 l-29 20 -9 -23 c-5 -13 -32 -75 -60
-138 -28 -63 -51 -117 -51 -121 0 -13 95 -68 170 -99 139 -58 258 -81 430 -85
105 -3 180 0 232 10 222 40 370 138 444 294 35 74 39 91 38 206 0 91 -3 106
-32 165 -71 149 -194 222 -499 296 -270 65 -342 96 -375 164 -31 63 -4 143 62
185 124 78 377 63 585 -34 l84 -39 56 140 c44 111 53 143 43 150 -54 38 -204
95 -303 114 -11 2 -31 6 -45 10 -28 6 -306 14 -312 9z"/>
<path d="M402 2518 l3 -812 385 1 c478 0 525 4 672 53 380 128 575 447 532
870 -9 92 -33 170 -81 270 -39 81 -59 107 -137 185 -98 97 -189 153 -316 194
-137 45 -193 49 -638 50 l-422 2 2 -813z m855 486 c244 -60 381 -251 368 -514
-7 -157 -64 -279 -168 -361 -115 -92 -199 -112 -477 -113 l-205 -1 -3 505 -2
505 210 -2 c156 -1 227 -6 277 -19z"/>
</g>
</svg>
